<svg width="22" height="15" viewBox="0 0 22 15" fill="none" xmlns="http://www.w3.org/2000/svg">
<path id="Vector 1" d="M1.23291 6.45911C0.680625 6.45911 0.23291 6.90682 0.23291 7.45911C0.23291 8.01139 0.680625 8.45911 1.23291 8.45911V6.45911ZM21.18 8.16621C21.5705 7.77569 21.5705 7.14252 21.18 6.752L14.816 0.388039C14.4255 -0.00248575 13.7924 -0.00248575 13.4018 0.388039C13.0113 0.778563 13.0113 1.41173 13.4018 1.80225L19.0587 7.45911L13.4018 13.116C13.0113 13.5065 13.0113 14.1396 13.4018 14.5302C13.7924 14.9207 14.4255 14.9207 14.816 14.5302L21.18 8.16621ZM1.23291 8.45911H20.4729V6.45911H1.23291V8.45911Z" fill="white"/>
</svg>
