<svg width="15" height="9" viewBox="0 0 15 9" fill="none" xmlns="http://www.w3.org/2000/svg">
    <path id="Vector 2"
        d="M1.17139 3.86572C0.895244 3.86572 0.671387 4.08958 0.671387 4.36572C0.671387 4.64187 0.895244 4.86572 1.17139 4.86572L1.17139 3.86572ZM13.8885 4.71928C14.0837 4.52402 14.0837 4.20743 13.8885 4.01217L10.7065 0.83019C10.5112 0.634927 10.1946 0.634927 9.99938 0.83019C9.80412 1.02545 9.80412 1.34203 9.99938 1.5373L12.8278 4.36572L9.99938 7.19415C9.80412 7.38941 9.80412 7.706 9.99938 7.90126C10.1946 8.09652 10.5112 8.09652 10.7065 7.90126L13.8885 4.71928ZM1.17139 4.86572L13.5349 4.86572L13.5349 3.86572L1.17139 3.86572L1.17139 4.86572Z"
        fill="#FF841F" />
</svg>