<svg width="19" height="23" viewBox="0 0 19 23" fill="none" xmlns="http://www.w3.org/2000/svg">
    <path id="Icon"
        d="M11.3359 1.89648V6.02703C11.3359 6.58708 11.3359 6.8671 11.4449 7.08101C11.5408 7.26918 11.6938 7.42216 11.8819 7.51803C12.0959 7.62702 12.3759 7.62702 12.9359 7.62702H17.0665M13.3359 12.627H5.33594M13.3359 16.627H5.33594M7.33594 8.62695H5.33594M11.3359 1.62695H6.13594C4.45578 1.62695 3.6157 1.62695 2.97397 1.95393C2.40948 2.24155 1.95054 2.7005 1.66292 3.26498C1.33594 3.90672 1.33594 4.7468 1.33594 6.42695V16.827C1.33594 18.5071 1.33594 19.3472 1.66292 19.9889C1.95054 20.5534 2.40948 21.0124 2.97397 21.3C3.6157 21.627 4.45578 21.627 6.13594 21.627H12.5359C14.2161 21.627 15.0562 21.627 15.6979 21.3C16.2624 21.0124 16.7213 20.5534 17.009 19.9889C17.3359 19.3472 17.3359 18.5071 17.3359 16.827V7.62695L11.3359 1.62695Z"
        stroke="#7B7B7B" stroke-width="2" stroke-linecap="round" stroke-linejoin="round" />
</svg>