<svg width="24" height="22" viewBox="0 0 24 22" fill="none" xmlns="http://www.w3.org/2000/svg">
<g id="google-icon-logo-svgrepo-com 1" clip-path="url(#clip0_117_234)">
<path id="Vector" d="M23.275 11.2059C23.275 10.3045 23.1986 9.64681 23.0331 8.96472H12.2729V13.0329H18.5889C18.4616 14.0439 17.774 15.5664 16.2459 16.5895L16.2245 16.7257L19.6266 19.2467L19.8623 19.2692C22.0271 17.3569 23.275 14.5432 23.275 11.2059Z" fill="#4285F4"/>
<path id="Vector_2" d="M12.273 21.9244C15.3673 21.9244 17.965 20.9499 19.8624 19.2691L16.2459 16.5894C15.2782 17.2349 13.9793 17.6856 12.273 17.6856C9.24234 17.6856 6.67011 15.7734 5.75319 13.1302L5.61879 13.1412L2.08118 15.7599L2.03491 15.8829C3.91951 19.4639 7.79062 21.9244 12.273 21.9244Z" fill="#34A853"/>
<path id="Vector_3" d="M5.7532 13.1303C5.51126 12.4482 5.37124 11.7174 5.37124 10.9622C5.37124 10.207 5.51126 9.47621 5.74047 8.79413L5.73406 8.64886L2.15212 5.98804L2.03492 6.04136C1.25819 7.52737 0.8125 9.19609 0.8125 10.9622C0.8125 12.7284 1.25819 14.397 2.03492 15.883L5.7532 13.1303Z" fill="#FBBC05"/>
<path id="Vector_4" d="M12.273 4.23869C14.425 4.23869 15.8766 5.12785 16.7043 5.87089L19.9387 2.85018C17.9523 1.08405 15.3673 0 12.273 0C7.79062 0 3.91951 2.46039 2.03491 6.04135L5.74046 8.79412C6.67011 6.15102 9.24234 4.23869 12.273 4.23869Z" fill="#EB4335"/>
</g>
<defs>
<clipPath id="clip0_117_234">
<rect width="23" height="22" fill="white" transform="translate(0.549072)"/>
</clipPath>
</defs>
</svg>
