<svg width="21" height="22" viewBox="0 0 21 22" fill="none" xmlns="http://www.w3.org/2000/svg">
    <path id="Icon"
        d="M11.3182 2.06222C10.9669 1.78896 10.7913 1.65234 10.5973 1.59982C10.4261 1.55348 10.2457 1.55348 10.0746 1.59982C9.88062 1.65234 9.70496 1.78896 9.35363 2.06222L2.57133 7.33734C2.11796 7.68996 1.89127 7.86627 1.72796 8.08707C1.5833 8.28266 1.47554 8.503 1.40996 8.73727C1.33594 9.00174 1.33594 9.28891 1.33594 9.86327V17.0982C1.33594 18.2183 1.33594 18.7784 1.55392 19.2062C1.74567 19.5825 2.05163 19.8885 2.42796 20.0802C2.85578 20.2982 3.41583 20.2982 4.53594 20.2982H6.53594C6.81596 20.2982 6.95598 20.2982 7.06293 20.2437C7.15701 20.1958 7.2335 20.1193 7.28144 20.0252C7.33594 19.9182 7.33594 19.7782 7.33594 19.4982V12.8982C7.33594 12.3381 7.33594 12.0581 7.44493 11.8442C7.5408 11.656 7.69378 11.5031 7.88195 11.4072C8.09586 11.2982 8.37588 11.2982 8.93594 11.2982H11.7359C12.296 11.2982 12.576 11.2982 12.7899 11.4072C12.9781 11.5031 13.1311 11.656 13.2269 11.8442C13.3359 12.0581 13.3359 12.3381 13.3359 12.8982V19.4982C13.3359 19.7782 13.3359 19.9182 13.3904 20.0252C13.4384 20.1193 13.5149 20.1958 13.6089 20.2437C13.7159 20.2982 13.8559 20.2982 14.1359 20.2982H16.1359C17.256 20.2982 17.8161 20.2982 18.2439 20.0802C18.6202 19.8885 18.9262 19.5825 19.118 19.2062C19.3359 18.7784 19.3359 18.2183 19.3359 17.0982V9.86327C19.3359 9.28891 19.3359 9.00174 19.2619 8.73727C19.1963 8.503 19.0886 8.28266 18.9439 8.08707C18.7806 7.86627 18.5539 7.68996 18.1005 7.33734L11.3182 2.06222Z"
        stroke="#7B7B7B" stroke-width="2" stroke-linecap="round" stroke-linejoin="round" />
</svg>