<svg xmlns="http://www.w3.org/2000/svg" fill="none" viewBox="14.47 16.82 31.94 25.95">
    <path d="M34.569 25.7637V31.7512M25.4507 27.3796V33.3671M29.8805 26.5716V32.5591M37.9199 17.8176C41.5853 17.8176 43.5678 18.3786 44.5542 18.8137C44.6856 18.8717 44.7512 18.9006 44.9408 19.0815C45.0544 19.19 45.2619 19.5082 45.3152 19.6559C45.4042 19.9024 45.4042 20.0371 45.4042 20.3065V36.3955C45.4042 37.7558 45.4042 38.436 45.2002 38.7856C44.9927 39.1412 44.7926 39.3065 44.4042 39.4432C44.0224 39.5776 43.2517 39.4295 41.7102 39.1333C40.6313 38.926 39.3517 38.7738 37.9199 38.7738C33.4293 38.7738 28.9386 41.7676 22.9512 41.7676C19.2858 41.7676 17.3033 41.2066 16.3168 40.7715C16.1855 40.7135 16.1198 40.6846 15.9302 40.5037C15.8166 40.3952 15.6092 40.077 15.5558 39.9293C15.4668 39.6828 15.4668 39.5481 15.4668 39.2787L15.4668 23.1897C15.4668 21.8294 15.4668 21.1492 15.6708 20.7996C15.8783 20.444 16.0784 20.2787 16.4668 20.142C16.8486 20.0076 17.6193 20.1557 19.1608 20.4519C20.2398 20.6592 21.5194 20.8114 22.9512 20.8114C27.4418 20.8114 31.9324 17.8176 37.9199 17.8176Z" stroke="#FF841F" stroke-width="2" stroke-linecap="round" stroke-linejoin="round"/>
</svg>