<svg width="21" height="23" viewBox="0 0 21 23" fill="none" xmlns="http://www.w3.org/2000/svg">
<path id="Icon" d="M5.23291 10.8025V6.80249C5.23291 5.47641 5.75969 4.20464 6.69738 3.26696C7.63506 2.32927 8.90683 1.80249 10.2329 1.80249C11.559 1.80249 12.8308 2.32927 13.7684 3.26696C14.7061 4.20464 15.2329 5.47641 15.2329 6.80249V10.8025M3.23291 10.8025H17.2329C18.3375 10.8025 19.2329 11.6979 19.2329 12.8025V19.8025C19.2329 20.9071 18.3375 21.8025 17.2329 21.8025H3.23291C2.12834 21.8025 1.23291 20.9071 1.23291 19.8025V12.8025C1.23291 11.6979 2.12834 10.8025 3.23291 10.8025Z" stroke="#7B7B7B" stroke-width="2" stroke-linecap="round" stroke-linejoin="round"/>
</svg>
