<?xml version="1.0" encoding="UTF-8"?>
<svg id="Layer_2" data-name="Layer 2" xmlns="http://www.w3.org/2000/svg" viewBox="0 0 1371.07 250.63">
  <defs>
    <style>
      .cls-1 {
        fill: #ff841f;
      }

      .cls-1, .cls-2, .cls-3, .cls-4 {
        stroke-width: 0px;
      }

      .cls-2 {
        fill: #fff;
      }

      .cls-3 {
        fill: #dd941f;
      }

      .cls-4 {
        fill: #ffb41d;
      }
    </style>
  </defs>
  <g id="Layer_1-2" data-name="Layer 1">
    <g>
      <g>
        <path class="cls-2" d="M277.11,184.71V52.09h66.02c25,0,45.31,18.36,45.31,44.34s-20.31,44.92-45.31,44.92h-33.98v43.36h-32.03ZM309.14,114.01h27.05c12.11,0,19.34-8.69,19.34-17.58,0-9.38-7.13-16.99-19.34-16.99h-27.05v34.57Z"/>
        <path class="cls-2" d="M398.79,158.15c0-18.65,18.36-29.88,39.65-29.88,6.74,0,13.09.88,18.75,2.44v-1.86c0-7.32-6.45-12.7-17.58-12.7-9.47,0-17.58,4.88-22.56,10.45l-16.99-18.26c7.13-7.91,21.78-19.34,42.19-19.34,28.52,0,45.7,15.04,45.7,40.04v55.66h-29.2v-9.57c-4.79,6.45-13.87,11.52-25,11.52-19.82,0-34.96-10.74-34.96-28.52ZM440.49,165.67c9.38,0,16.7-6.35,16.7-16.31-3.32-1.46-8.69-2.44-13.28-2.44-9.57,0-15.62,3.32-15.62,9.38,0,5.57,5.08,9.38,12.21,9.38Z"/>
        <path class="cls-2" d="M513.73,184.71v-93.75h29l.98,12.79c4.39-9.28,13.67-14.75,24.51-14.75,3.71,0,7.52.68,11.43,1.95l-1.86,26.86c-3.91-1.37-7.91-2.05-11.82-2.05-11.62,0-21.48,6.35-21.48,23.83v45.12h-30.76Z"/>
        <path class="cls-2" d="M584.73,137.84c0-27.93,21.39-48.83,50.39-48.83,20.41,0,36.13,11.33,43.55,25.1l-23.73,16.89c-3.52-8.59-10.94-13.67-19.82-13.67-11.72,0-19.92,8.89-19.92,20.51s8.2,20.8,19.92,20.8c11.04,0,17.29-7.71,20.51-13.38l23.24,16.99c-9.77,15.43-24.71,24.41-44.73,24.41-29,0-49.41-20.9-49.41-48.83Z"/>
        <path class="cls-2" d="M736.88,89.01c23.05,0,46.88,14.45,46.88,45.8,0,3.42-.29,7.13-.88,10.94h-63.28c1.27,10.16,11.04,14.94,20.7,14.94,8.4,0,15.92-5.27,21-11.62l19.53,17.19c-7.13,11.33-21.88,20.41-40.92,20.41-29.79,0-50.39-20.31-50.39-48.83s19.14-48.83,47.36-48.83ZM719.59,127.68h35.74c-.29-7.32-7.71-14.45-17.58-14.45-10.74,0-17.09,6.74-18.16,14.45Z"/>
        <path class="cls-2" d="M834.83,184.71h-30.76V47.21h30.76v137.5Z"/>
      </g>
      <g>
        <path class="cls-2" d="M868.43,184.71V52.09h54.1c25.39,0,41.89,15.23,41.89,38.28s-16.5,37.89-41.89,37.89h-42.38v56.45h-11.72ZM880.15,117.72h41.8c20.02,0,30.47-10.84,30.47-27.34s-10.45-27.73-30.47-27.73h-41.8v55.08Z"/>
        <path class="cls-2" d="M978.59,137.84c0-27.44,21.29-48.83,49.8-48.83s49.8,21.39,49.8,48.83-21.29,48.83-49.8,48.83-49.8-21.39-49.8-48.83ZM1028.39,175.92c21.78,0,38.09-16.7,38.09-38.09s-16.31-38.09-38.09-38.09-38.09,16.7-38.09,38.09,16.31,38.09,38.09,38.09Z"/>
        <path class="cls-2" d="M1103.98,90.96h11.72v14.94c5.27-11.43,15.04-16.89,26.17-16.89,5.96,0,10.16.88,13.77,2.44l-1.17,10.94c-4.1-1.56-7.13-2.54-13.18-2.54-14.65,0-25.49,10.94-25.49,31.84v53.03h-11.82v-93.75Z"/>
        <path class="cls-2" d="M1183.77,90.96v-30.08h11.91v30.08h33.01v10.35h-33.01v54.39c0,14.65,7.42,20.41,16.99,20.41,5.66,0,12.5-1.66,16.89-3.91l1.56,10.06c-3.42,2.15-11.23,4.39-19.04,4.39-16.5,0-28.22-8.98-28.22-28.12v-57.23h-17.87v-10.35h17.77Z"/>
        <path class="cls-2" d="M1286.7,129.15c10.84,0,22.56,2.93,29.59,7.42v-8.79c0-17.58-11.82-28.03-29.69-28.03-11.23,0-22.85,5.86-30.37,15.04l-7.42-7.42c9.08-11.33,23.44-18.36,37.7-18.36,25,0,41.41,14.65,41.41,37.11v58.59h-11.33v-16.99c-5.57,11.33-18.55,18.95-34.77,18.95-20.21,0-35.64-10.74-35.64-28.03s16.6-29.49,40.53-29.49ZM1257.89,158.05c0,12.01,9.57,18.95,25.78,18.95,18.65,0,32.52-15.04,32.62-30.76-5.57-4.49-17.97-7.81-29.39-7.81-17.48,0-29,7.81-29,19.63Z"/>
        <path class="cls-2" d="M1359.35,47.21h11.72v137.5h-11.72V47.21Z"/>
      </g>
      <g>
        <polygon class="cls-3" points="103.52 250.63 207.04 185.35 207.04 62.6 103.52 127.82 103.52 250.63"/>
        <polygon class="cls-1" points="207.04 62.6 103.52 127.82 0 62.6 103.52 0 207.04 62.6"/>
        <polygon class="cls-4" points="0 185.35 103.52 250.63 0 62.6 0 185.35"/>
      </g>
    </g>
  </g>
</svg>