<svg width="22" height="22" viewBox="0 0 22 22" fill="none" xmlns="http://www.w3.org/2000/svg">
<path id="Icon" d="M2.7572 9.46506C2.16186 9.23354 1.86418 9.11778 1.77728 8.95097C1.70194 8.80637 1.70184 8.63412 1.77701 8.48944C1.86372 8.32253 2.16125 8.20642 2.75633 7.9742L19.6441 1.38385C20.1813 1.17422 20.4498 1.06941 20.6215 1.12674C20.7705 1.17654 20.8875 1.2935 20.9373 1.44255C20.9946 1.61418 20.8898 1.88277 20.6802 2.41995L14.0898 19.3077C13.8576 19.9028 13.7415 20.2003 13.5746 20.287C13.4299 20.3622 13.2577 20.3621 13.1131 20.2867C12.9462 20.1998 12.8305 19.9022 12.599 19.3068L9.97085 12.5488C9.92386 12.428 9.90036 12.3675 9.86406 12.3167C9.8319 12.2716 9.79246 12.2321 9.74736 12.2C9.69648 12.1637 9.63606 12.1402 9.51521 12.0932L2.7572 9.46506Z" stroke="white" stroke-width="2" stroke-linecap="round" stroke-linejoin="round"/>
</svg>
