<svg width="28" height="34" viewBox="0 0 28 34" fill="none" xmlns="http://www.w3.org/2000/svg">
    <path
        d="M16.8241 2.11937V8.5245C16.8241 9.39296 16.8241 9.82719 16.9932 10.1589C17.1418 10.4507 17.3791 10.6879 17.6708 10.8366C18.0025 11.0056 18.4368 11.0056 19.3052 11.0056H25.7104M19.9255 18.7589H7.52009M19.9255 24.9616H7.52009M10.6214 12.5561H7.52009M16.8241 1.70142H8.76063C6.15525 1.70142 4.85256 1.70142 3.85743 2.20846C2.9821 2.65446 2.27043 3.36613 1.82442 4.24147C1.31738 5.23659 1.31738 6.53928 1.31738 9.14466V25.2717C1.31738 27.8771 1.31738 29.1798 1.82442 30.1749C2.27043 31.0502 2.9821 31.7619 3.85743 32.2079C4.85256 32.7149 6.15525 32.7149 8.76063 32.7149H18.685C21.2903 32.7149 22.593 32.7149 23.5882 32.2079C24.4635 31.7619 25.1752 31.0502 25.6212 30.1749C26.1282 29.1798 26.1282 27.8771 26.1282 25.2717V11.0055L16.8241 1.70142Z"
        stroke="#FF841F" stroke-width="2" stroke-linecap="round" stroke-linejoin="round" />
</svg>