<svg width="23" height="23" viewBox="0 0 23 23" fill="none" xmlns="http://www.w3.org/2000/svg">
<g id="Icon">
<path d="M11.3359 14.0075C12.8422 14.0075 14.0632 12.7865 14.0632 11.2803C14.0632 9.77404 12.8422 8.553 11.3359 8.553C9.82971 8.553 8.60866 9.77404 8.60866 11.2803C8.60866 12.7865 9.82971 14.0075 11.3359 14.0075Z" stroke="#7B7B7B" stroke-width="2" stroke-linecap="round" stroke-linejoin="round"/>
<path d="M18.0632 14.0075C17.9422 14.2817 17.9061 14.5859 17.9596 14.8808C18.013 15.1757 18.1536 15.4478 18.3632 15.6621L18.4178 15.7166C18.5868 15.8855 18.7209 16.086 18.8124 16.3067C18.9039 16.5275 18.951 16.7641 18.951 17.003C18.951 17.2419 18.9039 17.4785 18.8124 17.6993C18.7209 17.92 18.5868 18.1205 18.4178 18.2894C18.2489 18.4584 18.0484 18.5925 17.8276 18.684C17.6069 18.7755 17.3703 18.8226 17.1314 18.8226C16.8925 18.8226 16.6559 18.7755 16.4351 18.684C16.2144 18.5925 16.0139 18.4584 15.845 18.2894L15.7905 18.2348C15.5762 18.0252 15.3041 17.8847 15.0092 17.8312C14.7143 17.7777 14.4101 17.8138 14.1359 17.9348C13.8671 18.0501 13.6377 18.2414 13.4762 18.4853C13.3147 18.7292 13.228 19.015 13.2268 19.3075V19.4621C13.2268 19.9443 13.0353 20.4068 12.6943 20.7477C12.3533 21.0887 11.8909 21.2803 11.4087 21.2803C10.9265 21.2803 10.464 21.0887 10.123 20.7477C9.78204 20.4068 9.59048 19.9443 9.59048 19.4621V19.3803C9.58344 19.0794 9.48605 18.7875 9.31095 18.5427C9.13585 18.2979 8.89115 18.1114 8.60866 18.0075C8.33447 17.8865 8.03031 17.8504 7.7354 17.9039C7.4405 17.9574 7.16837 18.098 6.95412 18.3075L6.89957 18.3621C6.73071 18.5311 6.53019 18.6652 6.30947 18.7567C6.08874 18.8482 5.85215 18.8953 5.61321 18.8953C5.37427 18.8953 5.13768 18.8482 4.91696 18.7567C4.69623 18.6652 4.49571 18.5311 4.32685 18.3621C4.1578 18.1932 4.02369 17.9927 3.93219 17.772C3.84069 17.5513 3.7936 17.3147 3.7936 17.0757C3.7936 16.8368 3.84069 16.6002 3.93219 16.3795C4.02369 16.1587 4.1578 15.9582 4.32685 15.7894L4.38139 15.7348C4.59097 15.5206 4.73156 15.2484 4.78503 14.9535C4.8385 14.6586 4.80241 14.3545 4.68139 14.0803C4.56615 13.8114 4.37481 13.5821 4.13091 13.4206C3.88701 13.259 3.6012 13.1723 3.30866 13.1712H3.15412C2.67191 13.1712 2.20945 12.9796 1.86847 12.6386C1.5275 12.2977 1.33594 11.8352 1.33594 11.353C1.33594 10.8708 1.5275 10.4083 1.86847 10.0674C2.20945 9.72638 2.67191 9.53482 3.15412 9.53482H3.23594C3.53684 9.52778 3.82867 9.43038 4.07348 9.25528C4.3183 9.08019 4.50477 8.83549 4.60866 8.553C4.72968 8.2788 4.76578 7.97464 4.71231 7.67974C4.65883 7.38483 4.51824 7.11271 4.30866 6.89846L4.25412 6.84391C4.08507 6.67505 3.95096 6.47453 3.85947 6.2538C3.76797 6.03308 3.72087 5.79648 3.72087 5.55755C3.72087 5.31861 3.76797 5.08201 3.85947 4.86129C3.95096 4.64057 4.08507 4.44004 4.25412 4.27118C4.42298 4.10213 4.6235 3.96803 4.84423 3.87653C5.06495 3.78503 5.30155 3.73793 5.54048 3.73793C5.77942 3.73793 6.01601 3.78503 6.23674 3.87653C6.45746 3.96803 6.65799 4.10213 6.82685 4.27118L6.88139 4.32573C7.09565 4.53531 7.36777 4.6759 7.66268 4.72937C7.95758 4.78284 8.26174 4.74674 8.53594 4.62573H8.60866C8.87755 4.51049 9.10686 4.31914 9.26839 4.07524C9.42991 3.83134 9.51659 3.54553 9.51776 3.253V3.09846C9.51776 2.61624 9.70931 2.15378 10.0503 1.81281C10.3913 1.47183 10.8537 1.28027 11.3359 1.28027C11.8181 1.28027 12.2806 1.47183 12.6216 1.81281C12.9626 2.15378 13.1541 2.61624 13.1541 3.09846V3.18027C13.1553 3.47281 13.242 3.75861 13.4035 4.00251C13.565 4.24642 13.7943 4.43776 14.0632 4.553C14.3374 4.67401 14.6416 4.71011 14.9365 4.65664C15.2314 4.60317 15.5035 4.46258 15.7178 4.253L15.7723 4.19846C15.9412 4.02941 16.1417 3.8953 16.3624 3.8038C16.5831 3.7123 16.8197 3.66521 17.0587 3.66521C17.2976 3.66521 17.5342 3.7123 17.7549 3.8038C17.9756 3.8953 18.1762 4.02941 18.345 4.19846C18.5141 4.36732 18.6482 4.56784 18.7397 4.78856C18.8312 5.00929 18.8783 5.24588 18.8783 5.48482C18.8783 5.72376 18.8312 5.96035 18.7397 6.18107C18.6482 6.4018 18.5141 6.60232 18.345 6.77118L18.2905 6.82573C18.0809 7.03998 17.9403 7.31211 17.8868 7.60701C17.8334 7.90192 17.8695 8.20608 17.9905 8.48027V8.553C18.1057 8.82188 18.2971 9.0512 18.541 9.21272C18.7849 9.37424 19.0707 9.46093 19.3632 9.46209H19.5178C20 9.46209 20.4624 9.65365 20.8034 9.99463C21.1444 10.3356 21.3359 10.7981 21.3359 11.2803C21.3359 11.7625 21.1444 12.2249 20.8034 12.5659C20.4624 12.9069 20 13.0985 19.5178 13.0985H19.4359C19.1434 13.0996 18.8576 13.1863 18.6137 13.3478C18.3698 13.5093 18.1784 13.7387 18.0632 14.0075Z" stroke="#7B7B7B" stroke-width="2" stroke-linecap="round" stroke-linejoin="round"/>
</g>
</svg>
