<svg xmlns="http://www.w3.org/2000/svg" fill="none" viewBox="15.55 15.87 29.96 30.67">
    <path d="M23.5386 28.5212H23.5541M30.5283 28.5212H30.5439M37.5181 28.5212H37.5336M22.7619 40.1707V43.7984C22.7619 44.6261 22.7619 45.0399 22.9316 45.2525C23.0792 45.4373 23.3029 45.5448 23.5394 45.5446C23.8114 45.5443 24.1345 45.2858 24.7808 44.7687L28.4861 41.8045C29.243 41.199 29.6215 40.8962 30.0429 40.6809C30.4168 40.4899 30.8148 40.3503 31.2261 40.2659C31.6897 40.1707 32.1743 40.1707 33.1436 40.1707H37.0521C39.6618 40.1707 40.9667 40.1707 41.9635 39.6628C42.8403 39.2161 43.5532 38.5032 43.9999 37.6264C44.5078 36.6296 44.5078 35.3248 44.5078 32.715V24.3273C44.5078 21.7176 44.5078 20.4127 43.9999 19.4159C43.5532 18.5391 42.8403 17.8262 41.9635 17.3795C40.9667 16.8716 39.6618 16.8716 37.0521 16.8716H24.0046C21.3948 16.8716 20.0899 16.8716 19.0931 17.3795C18.2163 17.8262 17.5035 18.5391 17.0567 19.4159C16.5488 20.4127 16.5488 21.7176 16.5488 24.3273V33.9576C16.5488 35.4021 16.5488 36.1244 16.7076 36.717C17.1385 38.325 18.3945 39.5811 20.0026 40.012C20.5952 40.1707 21.3174 40.1707 22.7619 40.1707ZM24.3152 28.5212C24.3152 28.9501 23.9675 29.2978 23.5386 29.2978C23.1096 29.2978 22.7619 28.9501 22.7619 28.5212C22.7619 28.0922 23.1096 27.7445 23.5386 27.7445C23.9675 27.7445 24.3152 28.0922 24.3152 28.5212ZM31.305 28.5212C31.305 28.9501 30.9572 29.2978 30.5283 29.2978C30.0994 29.2978 29.7517 28.9501 29.7517 28.5212C29.7517 28.0922 30.0994 27.7445 30.5283 27.7445C30.9572 27.7445 31.305 28.0922 31.305 28.5212ZM38.2947 28.5212C38.2947 28.9501 37.947 29.2978 37.5181 29.2978C37.0891 29.2978 36.7414 28.9501 36.7414 28.5212C36.7414 28.0922 37.0891 27.7445 37.5181 27.7445C37.947 27.7445 38.2947 28.0922 38.2947 28.5212Z" stroke="#FF841F" stroke-width="2" stroke-linecap="round" stroke-linejoin="round"/>
</svg>