<svg width="23" height="24" viewBox="0 0 23 24" fill="none" xmlns="http://www.w3.org/2000/svg">
    <path id="Icon"
        d="M6.33594 9.97445H6.34705M11.3359 9.97445H11.347M16.3359 9.97445H16.347M5.78038 18.3078V20.9028C5.78038 21.4948 5.78038 21.7909 5.90175 21.9429C6.0073 22.0751 6.16735 22.1521 6.33654 22.1519C6.53108 22.1517 6.76224 21.9667 7.22456 21.5969L9.87506 19.4765C10.4165 19.0433 10.6872 18.8267 10.9887 18.6727C11.2562 18.5361 11.5409 18.4362 11.8351 18.3758C12.1667 18.3078 12.5134 18.3078 13.2068 18.3078H16.0026C17.8694 18.3078 18.8029 18.3078 19.5159 17.9445C20.1431 17.6249 20.653 17.115 20.9726 16.4877C21.3359 15.7747 21.3359 14.8413 21.3359 12.9744V6.97445C21.3359 5.1076 21.3359 4.17418 20.9726 3.46114C20.653 2.83394 20.1431 2.324 19.5159 2.00442C18.8029 1.64111 17.8694 1.64111 16.0026 1.64111H6.66927C4.80243 1.64111 3.86901 1.64111 3.15597 2.00442C2.52876 2.324 2.01883 2.83394 1.69925 3.46114C1.33594 4.17418 1.33594 5.1076 1.33594 6.97445V13.8633C1.33594 14.8966 1.33594 15.4133 1.44952 15.8372C1.75774 16.9875 2.65623 17.886 3.80654 18.1942C4.23043 18.3078 4.74708 18.3078 5.78038 18.3078ZM6.89149 9.97445C6.89149 10.2813 6.64276 10.53 6.33594 10.53C6.02911 10.53 5.78038 10.2813 5.78038 9.97445C5.78038 9.66762 6.02911 9.41889 6.33594 9.41889C6.64276 9.41889 6.89149 9.66762 6.89149 9.97445ZM11.8915 9.97445C11.8915 10.2813 11.6428 10.53 11.3359 10.53C11.0291 10.53 10.7804 10.2813 10.7804 9.97445C10.7804 9.66762 11.0291 9.41889 11.3359 9.41889C11.6428 9.41889 11.8915 9.66762 11.8915 9.97445ZM16.8915 9.97445C16.8915 10.2813 16.6428 10.53 16.3359 10.53C16.0291 10.53 15.7804 10.2813 15.7804 9.97445C15.7804 9.66762 16.0291 9.41889 16.3359 9.41889C16.6428 9.41889 16.8915 9.66762 16.8915 9.97445Z"
        stroke="#7B7B7B" stroke-width="2" stroke-linecap="round" stroke-linejoin="round" />
</svg>